# xmcd CD database file
#
# Track frame offsets:
#	150
#	8263
#	19844
#	33770
#	48177
#	56501
#	64075
#	72500
#	78563
#	92787
#	112289
#	119446
#	132484
#	143236
#	159426
#	165066
#	171706
#	181439
#	190100
#	196865
#	206319
#	214858
#	233460
#	257361
#	273711
#
# Disc length: 3861 seconds
#
# Revision: 0
# Processed by: cddbd v1.5.1PL0 Copyright (c) Steve Scherf et al.
# Submitted via: CDex 1.50
#
DISCID=5a0f1319
DTITLE=Mads Vindings and Poul Rosenbaum - Back to Bach
DYEAR=1900
DGENRE=Jazz
TTITLE0=Partita No1 Preludium
TTITLE1=Partita No1 Allemande
TTITLE2=Partita No1 Corrente
TTITLE3=Partita No1 Sarabande
TTITLE4=Partita No1 Menuet 1
TTITLE5=Partita No1 Menuet 2
TTITLE6=Partita No1 Gigue
TTITLE7=Wohltemperiertes Klavier Preludium a-minor
TTITLE8=Wohltemperiertes Klavier Preludium c-minor
TTITLE9=Wohltemperiertes Klavier Preludium f-minor
TTITLE10=Wohltemperiertes Klavier Preludium d-minor
TTITLE11=French Suite No2 C-minor Allemande
TTITLE12=French Suite No2 C-minor Courante
TTITLE13=French Suite No2 C-minor Sarabande
TTITLE14=French Suite No2 C-minor Air
TTITLE15=French Suite No2 C-minor Menuet
TTITLE16=French Suite No2 C-minor Gigue
TTITLE17=Notenbuchlein for Anna Magdalenna Menuet F-major
TTITLE18=Notenbuchlein for Anna Magdalenna Menuet G-major
TTITLE19=Notenbuchlein for Anna Magdalenna Menuet g-minor
TTITLE20=Notenbuchlein for Anna Magdalenna Menuet G-major
TTITLE21=Italian Concerto Allegro poco Moderato
TTITLE22=Italian Concerto Andante
TTITLE23=Italian Concerto Presto
TTITLE24=Jesu Joy of man's Desiring
EXTD=
EXTT0=
EXTT1=
EXTT2=
EXTT3=
EXTT4=
EXTT5=
EXTT6=
EXTT7=
EXTT8=
EXTT9=
EXTT10=
EXTT11=
EXTT12=
EXTT13=
EXTT14=
EXTT15=
EXTT16=
EXTT17=
EXTT18=
EXTT19=
EXTT20=
EXTT21=
EXTT22=
EXTT23=
EXTT24=
PLAYORDER=
